<?xml version="1.0" encoding="utf-8"?>
<!-- Generator: Adobe Illustrator 21.0.2, SVG Export Plug-In . SVG Version: 6.00 Build 0)  -->
<svg version="1.1" id="Calque_1" xmlns="http://www.w3.org/2000/svg" xmlns:xlink="http://www.w3.org/1999/xlink" x="0px" y="0px"
	 viewBox="0 0 200 200" style="enable-background:new 0 0 200 200;" xml:space="preserve">
<style type="text/css">
	.st0{fill:#141852;}
	.st1{fill:#76B3C4;stroke:#5FAFC1;stroke-linecap:round;stroke-linejoin:round;}
	.st2{fill:#FDD9A9;}
	.st3{opacity:0.25;fill:url(#SVGID_1_);enable-background:new    ;}
	.st4{opacity:0.25;fill:url(#SVGID_2_);enable-background:new    ;}
	.st5{fill:#FFFFFF;}
	.st6{fill:none;stroke:#E6E6E6;stroke-linecap:round;stroke-linejoin:round;}
	.st7{enable-background:new    ;}
	.st8{fill:#212121;}
	.st9{opacity:0.29;fill:url(#SVGID_3_);enable-background:new    ;}
	.st10{opacity:0.29;fill:url(#SVGID_4_);enable-background:new    ;}
	.st11{fill:#DE733D;}
	.st12{opacity:0.29;fill:url(#SVGID_5_);enable-background:new    ;}
</style>
<title>64</title>
<rect class="st0" width="200" height="200"/>
<path class="st1" d="M166,104.1c0-3.2-1.6-6.2-4.2-8.1c0-0.7,0.1-1.4,0.1-2.2c0-9-1.6-17.9-4.9-26.3c2.1-5.1-0.4-10.9-5.5-13
	c-0.5-0.2-0.9-0.3-1.4-0.5c-3.5-5.3-7.7-10-12.5-14.2c0-5.5-4.5-10-10.1-10h-0.4c-1.5-5.3-7.1-8.5-12.4-7c-2,0.6-3.8,1.8-5.1,3.4
	c-8.7-1.7-17.7-1.3-26.3,1c-4.4-3.4-10.7-2.5-14.1,1.9c-1.2,1.5-1.9,3.3-2,5.2c-5.2,3.3-9.9,7.3-14,11.9c-0.2,0-0.4,0-0.7,0
	c-5.6,0-10.1,4.5-10.1,10c0,1.5,0.3,3,1,4.3c-5.5,1-9.1,6.2-8.1,11.7c0.3,1.7,1.1,3.3,2.2,4.7c-2.4,10.4-2.5,21.2-0.4,31.6
	c-4,3.8-4.1,10.2-0.3,14.2c1.7,1.7,3.9,2.8,6.2,3c10.6,21.6,31.6,36.2,55.7,36.2c28.5,0,52.6-20.5,60.5-48.6
	C163.3,112.2,166,108.4,166,104.1z"/>
<path class="st2" d="M79.9,146L79.9,146c4.6,0,8.2,3.7,8.2,8.2v14.8c0,4.6-3.7,8.2-8.2,8.2l0,0c-4.6,0-8.2-3.7-8.2-8.2v-14.8
	C71.7,149.7,75.4,146,79.9,146z"/>
<radialGradient id="SVGID_1_" cx="79.94" cy="38.305" r="12.5158" gradientTransform="matrix(1 0 0 -1 0 200)" gradientUnits="userSpaceOnUse">
	<stop  offset="0" style="stop-color:#FFFFFF;stop-opacity:0"/>
	<stop  offset="0.1" style="stop-color:#FEFBF9;stop-opacity:3.000000e-02"/>
	<stop  offset="0.24" style="stop-color:#FBEEE8;stop-opacity:0.12"/>
	<stop  offset="0.41" style="stop-color:#F6DACB;stop-opacity:0.27"/>
	<stop  offset="0.6" style="stop-color:#F0BDA4;stop-opacity:0.47"/>
	<stop  offset="0.8" style="stop-color:#E79972;stop-opacity:0.73"/>
	<stop  offset="1" style="stop-color:#DE733D"/>
</radialGradient>
<path class="st3" d="M79.9,146L79.9,146c4.6,0,8.2,3.7,8.2,8.2v14.8c0,4.6-3.7,8.2-8.2,8.2l0,0c-4.6,0-8.2-3.7-8.2-8.2v-14.8
	C71.7,149.7,75.4,146,79.9,146z"/>
<path class="st1" d="M63.5,144c0,10.9,7.4,19.7,16.5,19.7s14.8-5.5,14.8-16.3"/>
<path class="st2" d="M115.9,146L115.9,146c4.6,0,8.2,3.7,8.2,8.2v14.8c0,4.6-3.7,8.2-8.2,8.2l0,0c-4.6,0-8.2-3.7-8.2-8.2v-14.8
	C107.7,149.7,111.4,146,115.9,146z"/>
<radialGradient id="SVGID_2_" cx="115.91" cy="38.305" r="12.5158" gradientTransform="matrix(1 0 0 -1 0 200)" gradientUnits="userSpaceOnUse">
	<stop  offset="0" style="stop-color:#FFFFFF;stop-opacity:0"/>
	<stop  offset="0.1" style="stop-color:#FEFBF9;stop-opacity:3.000000e-02"/>
	<stop  offset="0.24" style="stop-color:#FBEEE8;stop-opacity:0.12"/>
	<stop  offset="0.41" style="stop-color:#F6DACB;stop-opacity:0.27"/>
	<stop  offset="0.6" style="stop-color:#F0BDA4;stop-opacity:0.47"/>
	<stop  offset="0.8" style="stop-color:#E79972;stop-opacity:0.73"/>
	<stop  offset="1" style="stop-color:#DE733D"/>
</radialGradient>
<path class="st4" d="M115.9,146L115.9,146c4.6,0,8.2,3.7,8.2,8.2v14.8c0,4.6-3.7,8.2-8.2,8.2l0,0c-4.6,0-8.2-3.7-8.2-8.2v-14.8
	C107.7,149.7,111.4,146,115.9,146z"/>
<path class="st1" d="M100.8,147.3c0,10.9,6,16.3,15.1,16.3s16.5-8.8,16.5-19.7"/>
<image style="overflow:visible;opacity:0.1;enable-background:new    ;" width="59" height="30" xlink:href="BD4817A98D9F5E5C.png"  transform="matrix(0.9831 0 0 0.9667 70.17 128.5)">
</image>
<path class="st5" d="M78.3,129.8h40.2c3.6,0,6.5,2.9,6.5,6.5v11.2c0,3.6-2.9,6.5-6.5,6.5H78.3c-3.6,0-6.5-2.9-6.5-6.5v-11.2
	C71.8,132.7,74.7,129.8,78.3,129.8z"/>
<path class="st6" d="M78.3,129.8h40.2c3.6,0,6.5,2.9,6.5,6.5v11.2c0,3.6-2.9,6.5-6.5,6.5H78.3c-3.6,0-6.5-2.9-6.5-6.5v-11.2
	C71.8,132.7,74.7,129.8,78.3,129.8z"/>
<g class="st7">
	<path class="st8" d="M96.3,141.8c0.5,0.4,0.9,0.9,1.2,1.5c0.3,0.6,0.4,1.2,0.4,1.9c0,0.7-0.2,1.4-0.6,2c-0.4,0.6-0.9,1.1-1.6,1.5
		s-1.4,0.6-2.1,0.6c-0.8,0-1.6-0.2-2.3-0.6c-0.7-0.4-1.2-1-1.6-1.6c-0.4-0.7-0.6-1.4-0.6-2.1c0-0.8,0.2-1.6,0.5-2.5
		c0.4-0.9,0.9-1.9,1.8-2.8c0.8-0.9,1.9-1.8,3.1-2.5l2.1,2.2c-0.3,0.1-0.7,0.4-1,0.6s-0.8,0.6-1.1,1
		C95.2,141.1,95.8,141.4,96.3,141.8z M94.4,145.9c0.2-0.2,0.3-0.5,0.3-0.8c0-0.3-0.1-0.6-0.3-0.8c-0.2-0.2-0.5-0.3-0.9-0.3
		c-0.3,0-0.6,0.1-0.8,0.3c-0.2,0.2-0.4,0.4-0.4,0.7v0.2h0c0,0.3,0.1,0.6,0.4,0.8c0.2,0.2,0.5,0.3,0.9,0.3
		C93.8,146.2,94.1,146.1,94.4,145.9z"/>
</g>
<g class="st7">
	<path class="st8" d="M107.5,143.4v3.2l-1.5-0.1l0,2.5l-3.2,0.1l0.1-2.8l-4-0.2l-0.1-8.5l3.2-0.2l0.1,5.8l0.9,0l0.1-2.6l3.2-0.8
		l-0.1,3.6L107.5,143.4z"/>
</g>
<ellipse class="st1" cx="98.7" cy="89" rx="35.2" ry="38.9"/>
<ellipse class="st2" cx="98.7" cy="99.1" rx="29.3" ry="35.2"/>
<ellipse transform="matrix(0.6257 -0.7801 0.7801 0.6257 -39.4888 78.3198)" class="st2" cx="61.9" cy="80.3" rx="16.1" ry="7.3"/>
<radialGradient id="SVGID_3_" cx="98.71" cy="100.92" r="35.74" gradientTransform="matrix(1 0 0 -1 0 200)" gradientUnits="userSpaceOnUse">
	<stop  offset="0" style="stop-color:#FFFFFF;stop-opacity:0"/>
	<stop  offset="0.1" style="stop-color:#FEFBF9;stop-opacity:3.000000e-02"/>
	<stop  offset="0.24" style="stop-color:#FBEEE8;stop-opacity:0.12"/>
	<stop  offset="0.41" style="stop-color:#F6DACB;stop-opacity:0.27"/>
	<stop  offset="0.6" style="stop-color:#F0BDA4;stop-opacity:0.47"/>
	<stop  offset="0.8" style="stop-color:#E79972;stop-opacity:0.73"/>
	<stop  offset="1" style="stop-color:#DE733D"/>
</radialGradient>
<ellipse class="st9" cx="98.7" cy="99.1" rx="29.3" ry="35.2"/>
<ellipse cx="79.9" cy="91.3" rx="5.9" ry="8.7"/>
<ellipse cx="117.5" cy="91.3" rx="5.9" ry="8.7"/>
<ellipse class="st5" cx="78.1" cy="87.6" rx="1.4" ry="2.3"/>
<ellipse class="st5" cx="115.6" cy="87.6" rx="1.4" ry="2.3"/>
<radialGradient id="SVGID_4_" cx="61.86" cy="119.68" r="15.36" gradientTransform="matrix(0.6335 -0.7738 -0.4369 -0.3504 75.0429 169.8542)" gradientUnits="userSpaceOnUse">
	<stop  offset="0" style="stop-color:#FFFFFF;stop-opacity:0"/>
	<stop  offset="0.1" style="stop-color:#FEFBF9;stop-opacity:3.000000e-02"/>
	<stop  offset="0.24" style="stop-color:#FBEEE8;stop-opacity:0.12"/>
	<stop  offset="0.41" style="stop-color:#F6DACB;stop-opacity:0.27"/>
	<stop  offset="0.6" style="stop-color:#F0BDA4;stop-opacity:0.47"/>
	<stop  offset="0.8" style="stop-color:#E79972;stop-opacity:0.73"/>
	<stop  offset="1" style="stop-color:#DE733D"/>
</radialGradient>
<path class="st10" d="M56.2,75.7c5.6-6.9,12.6-10.5,15.8-8s1.2,10.2-4.4,17.2c-5.6,6.9-12.6,10.5-15.8,8
	C48.6,90.4,50.6,82.7,56.2,75.7z"/>
<ellipse transform="matrix(0.6257 -0.7801 0.7801 0.6257 -38.7109 78.1729)" class="st11" cx="62.1" cy="79.4" rx="10.8" ry="3.7"/>
<ellipse transform="matrix(0.7081 -0.7061 0.7061 0.7081 -17.5106 119.9378)" class="st2" cx="136.3" cy="81.1" rx="7.3" ry="16.1"/>
<radialGradient id="SVGID_5_" cx="-1008.37" cy="-1231.5699" r="15.36" gradientTransform="matrix(-0.699 -0.7152 -0.3965 0.3954 -1067.9779 -148.2859)" gradientUnits="userSpaceOnUse">
	<stop  offset="0" style="stop-color:#FFFFFF;stop-opacity:0"/>
	<stop  offset="0.1" style="stop-color:#FEFBF9;stop-opacity:3.000000e-02"/>
	<stop  offset="0.24" style="stop-color:#FBEEE8;stop-opacity:0.12"/>
	<stop  offset="0.41" style="stop-color:#F6DACB;stop-opacity:0.27"/>
	<stop  offset="0.6" style="stop-color:#F0BDA4;stop-opacity:0.47"/>
	<stop  offset="0.8" style="stop-color:#E79972;stop-opacity:0.73"/>
	<stop  offset="1" style="stop-color:#DE733D"/>
</radialGradient>
<path class="st12" d="M124.9,69.7c2.9-2.9,10.3-0.1,16.6,6.2c6.3,6.3,9.1,13.7,6.2,16.6s-10.3,0.1-16.6-6.2
	C124.8,80,122.1,72.6,124.9,69.7z"/>
<ellipse transform="matrix(0.7081 -0.7061 0.7061 0.7081 -17.5158 119.2297)" class="st11" cx="135.4" cy="80.8" rx="3.7" ry="10.8"/>
<path class="st1" d="M106.7,46.2c-3.6-4.2-10-4.6-14.1-0.9c-0.1,0.1-0.3,0.2-0.4,0.4c-3-2.1-7.2-1.5-9.3,1.5
	c-0.3,0.4-0.5,0.9-0.7,1.3C73.6,51.9,68,57.7,68,64.3c0,10.4,13.7,18.8,30.7,18.8s30.7-8.4,30.7-18.8
	C129.4,55.6,119.8,48.3,106.7,46.2z"/>
</svg>
