<svg id="Calque_1" data-name="Calque 1" xmlns="http://www.w3.org/2000/svg" viewBox="0 0 500 500"><title>game-over-14</title><rect width="500" height="500" style="fill:#070b34;opacity:0.5;isolation:isolate"/><g style="isolation:isolate"><path d="M126.46,245a13.16,13.16,0,0,1-5.15,1.08,18.3,18.3,0,0,1-7.37-1.42,15.8,15.8,0,0,1-5.53-3.92,17.37,17.37,0,0,1-3.45-5.87,21.55,21.55,0,0,1-1.2-7.28,22.3,22.3,0,0,1,1.2-7.42,17.82,17.82,0,0,1,3.45-6,15.77,15.77,0,0,1,5.53-4,18,18,0,0,1,7.38-1.45,17.33,17.33,0,0,1,5.32.83,15.09,15.09,0,0,1,4.65,2.42,13.11,13.11,0,0,1,5.08,9.35h-7.5a7.52,7.52,0,0,0-2.7-4.5,7.85,7.85,0,0,0-4.85-1.5,9.17,9.17,0,0,0-4.5,1,8.49,8.49,0,0,0-3,2.75,12,12,0,0,0-1.68,3.92,19.53,19.53,0,0,0-.52,4.55,18.16,18.16,0,0,0,.52,4.38,11.8,11.8,0,0,0,1.68,3.83,8.56,8.56,0,0,0,3,2.72,9.16,9.16,0,0,0,4.5,1,7.66,7.66,0,0,0,8.5-7.7h-7.9V226h15v19.3h-5l-.8-4A11.76,11.76,0,0,1,126.46,245Z" style="fill:#fff"/><path d="M142.21,227.38a8.25,8.25,0,0,1,1.25-4.15,8.5,8.5,0,0,1,2.8-2.65,12.2,12.2,0,0,1,3.82-1.42,21.75,21.75,0,0,1,4.27-.42,29.09,29.09,0,0,1,4,.27,12.13,12.13,0,0,1,3.65,1.08,7.2,7.2,0,0,1,2.7,2.23,6.22,6.22,0,0,1,1,3.77v13.45a26.91,26.91,0,0,0,.2,3.35,6,6,0,0,0,.7,2.4h-7.2a10,10,0,0,1-.33-1.22,10.52,10.52,0,0,1-.17-1.28,9.26,9.26,0,0,1-4,2.45,16.09,16.09,0,0,1-4.7.7,12.7,12.7,0,0,1-3.45-.45,7.89,7.89,0,0,1-2.8-1.4,6.51,6.51,0,0,1-1.87-2.4,8.12,8.12,0,0,1-.67-3.45,7.53,7.53,0,0,1,.77-3.62,6.48,6.48,0,0,1,2-2.28,9,9,0,0,1,2.8-1.27,30.24,30.24,0,0,1,3.18-.68q1.6-.25,3.15-.4a19,19,0,0,0,2.75-.45,4.8,4.8,0,0,0,1.9-.87,1.92,1.92,0,0,0,.65-1.67,3.77,3.77,0,0,0-.37-1.83,2.76,2.76,0,0,0-1-1,3.93,3.93,0,0,0-1.45-.5,11.92,11.92,0,0,0-1.77-.12,5.39,5.39,0,0,0-3.3.9,4,4,0,0,0-1.4,3Zm16.4,5.25a3.16,3.16,0,0,1-1.12.63,11.36,11.36,0,0,1-1.45.38q-.78.15-1.62.25t-1.7.25a13,13,0,0,0-1.57.4,4.67,4.67,0,0,0-1.35.67,3.22,3.22,0,0,0-.93,1.08,3.46,3.46,0,0,0-.35,1.65,3.34,3.34,0,0,0,.35,1.6,2.68,2.68,0,0,0,1,1,4,4,0,0,0,1.4.52,8.88,8.88,0,0,0,1.65.15,6.27,6.27,0,0,0,3.25-.7,4.69,4.69,0,0,0,1.7-1.67,5.36,5.36,0,0,0,.67-2,13.62,13.62,0,0,0,.13-1.6Z" style="fill:#fff"/><path d="M178.11,219.43v3.5h.1a10.1,10.1,0,0,1,3.38-3.1,9.15,9.15,0,0,1,4.52-1.1,10.42,10.42,0,0,1,4.48,1,6.29,6.29,0,0,1,3.07,3.35,11,11,0,0,1,3.13-3,8.31,8.31,0,0,1,4.68-1.3,13.8,13.8,0,0,1,3.8.5,7.67,7.67,0,0,1,3,1.6,7.35,7.35,0,0,1,2,2.88,11.7,11.7,0,0,1,.7,4.28v17.3h-7.1V230.63q0-1.3-.1-2.45a5.21,5.21,0,0,0-.55-2,3.35,3.35,0,0,0-1.32-1.35,4.8,4.8,0,0,0-2.37-.5,4.55,4.55,0,0,0-2.43.58,4.16,4.16,0,0,0-1.45,1.5,6,6,0,0,0-.7,2.1,16,16,0,0,0-.17,2.38v14.4h-7.1v-14.5q0-1.15-.05-2.28a6.37,6.37,0,0,0-.42-2.07,3.2,3.2,0,0,0-1.25-1.53,4.72,4.72,0,0,0-2.58-.58,5.3,5.3,0,0,0-1.32.23,4.39,4.39,0,0,0-1.6.85,5,5,0,0,0-1.33,1.8,7.3,7.3,0,0,0-.55,3.08v15h-7.1V219.43Z" style="fill:#fff"/><path d="M224.11,239.08a7.28,7.28,0,0,0,8.3.48,4.46,4.46,0,0,0,1.9-2.28h6.25a11.87,11.87,0,0,1-4.6,6.65,13.55,13.55,0,0,1-7.5,2,14.75,14.75,0,0,1-5.5-1,11.43,11.43,0,0,1-4.15-2.77,12.47,12.47,0,0,1-2.62-4.3,15.72,15.72,0,0,1-.92-5.5,15.07,15.07,0,0,1,1-5.4,12.49,12.49,0,0,1,6.88-7.2,13.38,13.38,0,0,1,5.38-1,12.3,12.3,0,0,1,5.75,1.27,11.48,11.48,0,0,1,4,3.43,14.1,14.1,0,0,1,2.28,4.9,18.29,18.29,0,0,1,.5,5.75H222.36Q222.51,237.53,224.11,239.08Zm8-13.6a5,5,0,0,0-3.87-1.4,6.18,6.18,0,0,0-2.83.58,5.39,5.39,0,0,0-1.8,1.42,5.21,5.21,0,0,0-1,1.8,8.13,8.13,0,0,0-.33,1.7h11.55A8.21,8.21,0,0,0,232.13,225.48Z" style="fill:#fff"/><path d="M259.51,220.15a17.84,17.84,0,0,1,3.45-6,15.77,15.77,0,0,1,5.53-4,19.54,19.54,0,0,1,14.77,0,15.83,15.83,0,0,1,5.5,4,17.82,17.82,0,0,1,3.45,6,22.31,22.31,0,0,1,1.2,7.42,21.57,21.57,0,0,1-1.2,7.28,17.38,17.38,0,0,1-3.45,5.88,15.85,15.85,0,0,1-5.5,3.92,19.86,19.86,0,0,1-14.77,0,15.8,15.8,0,0,1-5.53-3.92,17.39,17.39,0,0,1-3.45-5.87,21.57,21.57,0,0,1-1.2-7.28A22.31,22.31,0,0,1,259.51,220.15Zm7.18,11.8a11.79,11.79,0,0,0,1.67,3.83,8.57,8.57,0,0,0,3,2.72,10.39,10.39,0,0,0,9,0,8.59,8.59,0,0,0,3-2.72A11.81,11.81,0,0,0,285,232a18.19,18.19,0,0,0,.53-4.37A19.56,19.56,0,0,0,285,223a12,12,0,0,0-1.67-3.92,8.51,8.51,0,0,0-3-2.75,10.39,10.39,0,0,0-9,0,8.49,8.49,0,0,0-3,2.75,12,12,0,0,0-1.67,3.92,19.5,19.5,0,0,0-.53,4.55A18.14,18.14,0,0,0,266.68,232Z" style="fill:#fff"/><path d="M304.41,245.28l-8.85-25.85H303l5.45,17.65h.1L314,219.43h7l-8.75,25.85Z" style="fill:#fff"/><path d="M331.61,239.08a7.28,7.28,0,0,0,8.3.48,4.46,4.46,0,0,0,1.9-2.28h6.25a11.87,11.87,0,0,1-4.6,6.65,13.55,13.55,0,0,1-7.5,2,14.75,14.75,0,0,1-5.5-1,11.43,11.43,0,0,1-4.15-2.77,12.47,12.47,0,0,1-2.62-4.3,15.72,15.72,0,0,1-.92-5.5,15.07,15.07,0,0,1,1-5.4,12.49,12.49,0,0,1,6.88-7.2,13.38,13.38,0,0,1,5.38-1,12.3,12.3,0,0,1,5.75,1.27,11.48,11.48,0,0,1,4,3.43,14.1,14.1,0,0,1,2.28,4.9,18.29,18.29,0,0,1,.5,5.75H329.86Q330,237.53,331.61,239.08Zm8-13.6a5,5,0,0,0-3.87-1.4,6.18,6.18,0,0,0-2.83.58,5.39,5.39,0,0,0-1.8,1.42,5.21,5.21,0,0,0-1,1.8,8.13,8.13,0,0,0-.33,1.7h11.55A8.21,8.21,0,0,0,339.63,225.48Z" style="fill:#fff"/><path d="M359.46,219.43v4.8h.1a8.72,8.72,0,0,1,1.35-2.23,8.88,8.88,0,0,1,1.95-1.75,9.59,9.59,0,0,1,2.35-1.12,8.51,8.51,0,0,1,2.6-.4,5.52,5.52,0,0,1,1.55.25v6.6q-.5-.1-1.2-.17a12.77,12.77,0,0,0-1.35-.08,7.58,7.58,0,0,0-3.3.65,5.71,5.71,0,0,0-2.17,1.77,7.11,7.11,0,0,0-1.17,2.63,14.23,14.23,0,0,0-.35,3.25v11.65h-7.1V219.43Z" style="fill:#fff"/><path d="M394.26,237.58v7.7h-7.85v-7.7Zm-2.2-3h-3.55l-1.9-15.4v-9.6H394v9.6Z" style="fill:#fff"/></g><rect x="162.06" y="278.11" width="175" height="57.78" rx="7.5" ry="7.5" style="fill:#141852"/><g style="isolation:isolate"><g style="isolation:isolate"><path d="M183.56,298.54v-4h17.55v4h-6.42V316H190V298.54Z" style="fill:#fff"/></g><g style="isolation:isolate"><path d="M204.41,300.49v2.88h.06a5.22,5.22,0,0,1,.81-1.33,5.29,5.29,0,0,1,1.17-1,5.73,5.73,0,0,1,1.41-.68,5.1,5.1,0,0,1,1.56-.24,3.33,3.33,0,0,1,.93.15v4c-.2,0-.44-.07-.72-.1a7.54,7.54,0,0,0-.81,0,4.54,4.54,0,0,0-2,.39,3.43,3.43,0,0,0-1.3,1.07,4.26,4.26,0,0,0-.71,1.57,8.55,8.55,0,0,0-.21,2v7h-4.26V300.49Z" style="fill:#fff"/><path d="M217.76,320.62a6.18,6.18,0,0,1-3.42.81q-.66,0-1.3,0l-1.31-.1v-3.51l1.23.12a8.9,8.9,0,0,0,1.26,0,1.65,1.65,0,0,0,1.25-.66,2.12,2.12,0,0,0,.41-1.26,2.56,2.56,0,0,0-.18-1l-5.43-14.55h4.53l3.51,10.62h.06l3.39-10.62h4.41l-6.48,17.43A5.25,5.25,0,0,1,217.76,320.62Z" style="fill:#fff"/><path d="M247.07,294.58l8,21.42h-4.89l-1.62-4.77h-8L238.88,316h-4.74l8.1-21.42Zm.27,13.14-2.7-7.86h-.06l-2.79,7.86Z" style="fill:#fff"/><path d="M271.14,317.14a5.26,5.26,0,0,1-1.09,2.24,6.52,6.52,0,0,1-2.43,1.75,10.47,10.47,0,0,1-4.26.72,10,10,0,0,1-2.33-.28,7.39,7.39,0,0,1-2.16-.89,5.33,5.33,0,0,1-1.62-1.54,4.48,4.48,0,0,1-.73-2.26h4.23a2.43,2.43,0,0,0,1.17,1.67,4.21,4.21,0,0,0,2,.46,3.1,3.1,0,0,0,2.63-1.08,4.24,4.24,0,0,0,.79-2.73v-2h-.06a4.21,4.21,0,0,1-2,1.81,6.36,6.36,0,0,1-2.68.58,6.77,6.77,0,0,1-3-.62,5.69,5.69,0,0,1-2.07-1.68,7,7,0,0,1-1.18-2.49,11.75,11.75,0,0,1-.37-3,9.66,9.66,0,0,1,.43-2.89,7.57,7.57,0,0,1,1.28-2.46,6.17,6.17,0,0,1,2.08-1.69,6.26,6.26,0,0,1,2.86-.63,6,6,0,0,1,2.69.57,4.64,4.64,0,0,1,1.93,1.92h.06v-2.07h4V315A10.39,10.39,0,0,1,271.14,317.14ZM265.31,312a3.32,3.32,0,0,0,1.14-1,4.24,4.24,0,0,0,.67-1.36,5.65,5.65,0,0,0,.23-1.61,8.78,8.78,0,0,0-.18-1.81,4.51,4.51,0,0,0-.6-1.52,3.11,3.11,0,0,0-1.11-1,3.5,3.5,0,0,0-1.74-.39,3.13,3.13,0,0,0-1.54.36,3.24,3.24,0,0,0-1.08,1,4.09,4.09,0,0,0-.63,1.41,6.92,6.92,0,0,0-.2,1.67,8.45,8.45,0,0,0,.17,1.67,4.49,4.49,0,0,0,.57,1.48,3.32,3.32,0,0,0,1.07,1.08,3,3,0,0,0,1.65.42A3.4,3.4,0,0,0,265.31,312Z" style="fill:#fff"/><path d="M274.64,305.26a4.94,4.94,0,0,1,.75-2.49,5.12,5.12,0,0,1,1.68-1.59,7.32,7.32,0,0,1,2.29-.85,13.05,13.05,0,0,1,2.57-.25,17.35,17.35,0,0,1,2.37.17,7.25,7.25,0,0,1,2.19.64,4.31,4.31,0,0,1,1.62,1.33,3.73,3.73,0,0,1,.63,2.27v8.07a16.18,16.18,0,0,0,.12,2,3.63,3.63,0,0,0,.42,1.44H285a6,6,0,0,1-.19-.74,6.13,6.13,0,0,1-.11-.76,5.54,5.54,0,0,1-2.4,1.47,9.63,9.63,0,0,1-2.82.42,7.64,7.64,0,0,1-2.07-.27,4.74,4.74,0,0,1-1.68-.84,3.9,3.9,0,0,1-1.12-1.44,4.87,4.87,0,0,1-.41-2.07,4.53,4.53,0,0,1,.46-2.17,3.89,3.89,0,0,1,1.2-1.36,5.38,5.38,0,0,1,1.68-.77,18.1,18.1,0,0,1,1.9-.41q1-.15,1.89-.24a11.42,11.42,0,0,0,1.65-.27,2.89,2.89,0,0,0,1.14-.52,1.16,1.16,0,0,0,.39-1,2.27,2.27,0,0,0-.22-1.09,1.66,1.66,0,0,0-.6-.63,2.35,2.35,0,0,0-.87-.3,7.14,7.14,0,0,0-1.06-.08,3.23,3.23,0,0,0-2,.54,2.41,2.41,0,0,0-.84,1.8Zm9.84,3.15a1.91,1.91,0,0,1-.67.38,6.89,6.89,0,0,1-.87.22q-.47.09-1,.15l-1,.15a7.88,7.88,0,0,0-.95.24,2.81,2.81,0,0,0-.81.41,1.92,1.92,0,0,0-.55.64,2.07,2.07,0,0,0-.21,1,2,2,0,0,0,.21,1,1.6,1.6,0,0,0,.57.62,2.42,2.42,0,0,0,.84.32,5.41,5.41,0,0,0,1,.09,3.76,3.76,0,0,0,2-.42,2.81,2.81,0,0,0,1-1,3.19,3.19,0,0,0,.41-1.18,8.18,8.18,0,0,0,.08-1Z" style="fill:#fff"/><path d="M292.16,298.09v-3.51h4.26v3.51Zm4.26,2.4V316h-4.26V300.49Z" style="fill:#fff"/><path d="M303.83,300.49v2.16h.09a4.89,4.89,0,0,1,2.1-2,6.08,6.08,0,0,1,2.64-.61,7.24,7.24,0,0,1,2.8.46,4.16,4.16,0,0,1,1.73,1.29,5,5,0,0,1,.88,2,12.51,12.51,0,0,1,.25,2.63V316h-4.26v-8.76a5.43,5.43,0,0,0-.6-2.87,2.32,2.32,0,0,0-2.13-.95,3,3,0,0,0-2.52,1,5.75,5.75,0,0,0-.78,3.41V316h-4.26V300.49Z" style="fill:#fff"/></g></g></svg>