<svg id="Calque_1" data-name="Calque 1" xmlns="http://www.w3.org/2000/svg" viewBox="0 0 200 200"><title>lune</title><g id="Moon_Crestcent" data-name="Moon Crestcent"><g id="Star"><path d="M177.08,49.28a7.21,7.21,0,0,1-9.68-3.21,7.21,7.21,0,0,1-3.21,9.68A7.21,7.21,0,0,1,173.87,59,7.21,7.21,0,0,1,177.08,49.28Z" style="fill:#fff"/><path d="M70.19,179.23a9,9,0,0,1-3.78-12.09,9,9,0,0,1-12.09,3.78A9,9,0,0,1,58.09,183,9,9,0,0,1,70.19,179.23Z" style="fill:#fff"/><path d="M81.4,15.39a4.54,4.54,0,0,1-6.25-1.47,4.54,4.54,0,0,1-1.47,6.25,4.54,4.54,0,0,1,6.25,1.47A4.54,4.54,0,0,1,81.4,15.39Z" style="fill:#fff"/><path d="M47.43,71.67a3.36,3.36,0,0,1-4.62-1.08,3.36,3.36,0,0,1-1.08,4.62,3.36,3.36,0,0,1,4.62,1.08A3.36,3.36,0,0,1,47.43,71.67Z" style="fill:#fff"/><path d="M179.93,100.76a3.36,3.36,0,0,1-4.62-1.08,3.36,3.36,0,0,1-1.08,4.62,3.35,3.35,0,0,1,4.62,1.08A3.35,3.35,0,0,1,179.93,100.76Z" style="fill:#fff"/><path d="M30.34,104a4.54,4.54,0,0,1-6.25-1.46,4.54,4.54,0,0,1-1.47,6.25,4.54,4.54,0,0,1,6.25,1.47A4.54,4.54,0,0,1,30.34,104Z" style="fill:#fff"/><path d="M174.49,121.95a4.54,4.54,0,0,1-6.25-1.47,4.54,4.54,0,0,1-1.47,6.25A4.54,4.54,0,0,1,173,128.2,4.54,4.54,0,0,1,174.49,121.95Z" style="fill:#fff"/></g><g id="Moon_Crestcent-2" data-name="Moon Crestcent"><path d="M144.57,34A63.65,63.65,0,0,1,38.29,87.42,63.63,63.63,0,1,0,144.57,34Z" style="fill:#d1f4ff"/><circle cx="98.52" cy="118.84" r="8.24" transform="translate(-49.79 161.62) rotate(-66.43)" style="fill:#a6cddd"/><g style="opacity:0.1"><path d="M102.83,114.06a8.21,8.21,0,0,1,3.81,3.38A8.24,8.24,0,1,0,91.42,123a8.24,8.24,0,0,1,11.41-8.95Z"/></g><circle cx="152.2" cy="84.92" r="4.71" transform="translate(13.51 190.47) rotate(-66.43)" style="fill:#a6cddd"/><g style="opacity:0.1"><path d="M154.67,82.18a4.69,4.69,0,0,1,2.18,1.93,4.71,4.71,0,1,0-8.71,3.19,4.71,4.71,0,0,1,6.53-5.12Z"/></g><ellipse cx="145.4" cy="120.37" rx="3.36" ry="1.83" transform="translate(-41.22 148.72) rotate(-48.26)" style="fill:#a6cddd"/><g style="opacity:0.1"><path d="M147.39,118.81a1.38,1.38,0,0,1,.37,1.2,1.91,1.91,0,0,0-.13-2.15c-.75-.67-2.36-.09-3.6,1.29a4.68,4.68,0,0,0-1.25,2.53,5.55,5.55,0,0,1,1-1.58C145,118.72,146.64,118.14,147.39,118.81Z"/></g><circle cx="153.83" cy="58.38" r="2.48" transform="translate(38.8 176.03) rotate(-66.43)" style="fill:#a6cddd"/><g style="opacity:0.1"><path d="M155.12,56.95a2.46,2.46,0,0,1,1.14,1,2.48,2.48,0,1,0-4.57,1.67,2.48,2.48,0,0,1,3.43-2.69Z"/></g><circle cx="66.13" cy="118.11" r="2.48" transform="translate(-68.57 131.48) rotate(-66.43)" style="fill:#a6cddd"/><g style="opacity:0.1"><path d="M67.42,116.67a2.47,2.47,0,0,1,1.14,1A2.48,2.48,0,1,0,64,119.36a2.48,2.48,0,0,1,3.43-2.69Z"/></g><ellipse cx="115.38" cy="137.28" rx="3.07" ry="2.61" transform="translate(-43.41 53.94) rotate(-22.26)" style="fill:#a6cddd"/><g style="opacity:0.1"><path d="M117.73,137a2.35,2.35,0,0,1,0,1.64,2.54,2.54,0,0,0,.45-2.54,2.86,2.86,0,0,0-3.83-1.25,3.26,3.26,0,0,0-1.89,1.93,3.44,3.44,0,0,1,1.4-1A2.87,2.87,0,0,1,117.73,137Z"/></g><path d="M121.25,141.48A63.63,63.63,0,0,0,144.57,34S169,91.59,121.25,141.48Z" style="opacity:0.1"/></g><path id="Cloud" d="M106.3,124.35a15.64,15.64,0,0,0-10.71,4.22,15.51,15.51,0,0,0-8-2.23,15.67,15.67,0,0,0-3.19.33,25.62,25.62,0,0,0-46.14,2.65A15.57,15.57,0,0,0,18.6,146H120.83a15.7,15.7,0,0,0-14.53-21.65Z" style="fill:#fff"/></g></svg>