<?xml version="1.0" encoding="utf-8"?>
<!-- Generator: Adobe Illustrator 21.0.2, SVG Export Plug-In . SVG Version: 6.00 Build 0)  -->
<svg version="1.1" id="Calque_1" xmlns="http://www.w3.org/2000/svg" xmlns:xlink="http://www.w3.org/1999/xlink" x="0px" y="0px"
	 viewBox="0 0 500 500" style="enable-background:new 0 0 500 500;" xml:space="preserve">
<style type="text/css">
	.st0{opacity:0.5;fill:#070B34;enable-background:new    ;}
	.st1{enable-background:new    ;}
	.st2{fill:#FFFFFF;}
	.st3{stroke:#1A1A1A;stroke-linecap:round;stroke-linejoin:round;}
	.st4{fill:#FDD9A9;}
	.st5{opacity:0.25;fill:url(#SVGID_1_);enable-background:new    ;}
	.st6{opacity:0.25;fill:url(#SVGID_2_);enable-background:new    ;}
	.st7{fill:none;stroke:#E6E6E6;stroke-linecap:round;stroke-linejoin:round;}
	.st8{fill:#212121;}
	.st9{opacity:0.29;fill:url(#SVGID_3_);enable-background:new    ;}
	.st10{opacity:0.29;fill:url(#SVGID_4_);enable-background:new    ;}
	.st11{fill:#DE733D;}
	.st12{opacity:0.29;fill:url(#SVGID_5_);enable-background:new    ;}
	.st13{fill:#141852;}
</style>
<title>win</title>
<rect x="-0.4" y="-0.5" class="st0" width="500" height="500"/>
<g class="st1">
	<path class="st2" d="M139.9,99.1h8.8l8.4,14.1l8.3-14.1h8.8l-13.2,22v13.7H153v-13.9L139.9,99.1z"/>
</g>
<g class="st1">
	<path class="st2" d="M170.9,116.3c0.6-1.7,1.5-3.1,2.7-4.3c1.2-1.2,2.6-2.1,4.2-2.8c1.6-0.6,3.5-1,5.5-1c2,0,3.9,0.3,5.5,1
		c1.6,0.7,3.1,1.6,4.2,2.8c1.2,1.2,2.1,2.6,2.7,4.3c0.6,1.7,0.9,3.6,0.9,5.6c0,2.1-0.3,3.9-0.9,5.6c-0.6,1.7-1.5,3.1-2.7,4.3
		c-1.2,1.2-2.6,2.1-4.2,2.7s-3.5,1-5.5,1c-2,0-3.9-0.3-5.5-1c-1.6-0.6-3-1.5-4.2-2.7c-1.2-1.2-2.1-2.6-2.7-4.3c-0.6-1.7-1-3.5-1-5.6
		C170,119.8,170.3,117.9,170.9,116.3z M177.4,124.9c0.2,1,0.5,1.9,1,2.7c0.5,0.8,1.1,1.4,1.9,1.9s1.8,0.7,3,0.7s2.2-0.2,3-0.7
		c0.8-0.5,1.5-1.1,2-1.9c0.5-0.8,0.8-1.7,1-2.7c0.2-1,0.3-2,0.3-3c0-1-0.1-2-0.3-3s-0.5-1.9-1-2.6c-0.5-0.8-1.1-1.4-2-1.9
		c-0.8-0.5-1.8-0.7-3-0.7s-2.2,0.2-3,0.7s-1.4,1.1-1.9,1.9c-0.5,0.8-0.8,1.6-1,2.6c-0.2,1-0.3,2-0.3,3
		C177.1,122.9,177.2,123.9,177.4,124.9z"/>
	<path class="st2" d="M218.8,134.8v-3.6h-0.2c-0.9,1.5-2.1,2.6-3.5,3.2c-1.4,0.7-2.9,1-4.4,1c-1.9,0-3.5-0.2-4.7-0.8
		c-1.2-0.5-2.2-1.2-2.9-2.1c-0.7-0.9-1.2-2-1.5-3.4c-0.3-1.3-0.4-2.8-0.4-4.4v-15.9h7.1v14.6c0,2.1,0.3,3.7,1,4.8
		c0.7,1,1.9,1.6,3.6,1.6c1.9,0,3.3-0.6,4.2-1.7c0.9-1.2,1.3-3,1.3-5.7v-13.5h7.1v25.8H218.8z"/>
	<path class="st2" d="M271.8,134.8l-6.1-24.3h-0.1l-6,24.3h-7.9l-9.5-35.7h7.8l5.7,24.3h0.1l6.2-24.3h7.3l6.1,24.6h0.1l5.8-24.6h7.7
		l-9.6,35.7H271.8z"/>
	<path class="st2" d="M292.3,104.9v-5.9h7.1v5.9H292.3z M299.4,108.9v25.8h-7.1v-25.8H299.4z"/>
	<path class="st2" d="M311.7,108.9v3.6h0.1c0.9-1.5,2.1-2.6,3.5-3.3c1.4-0.7,2.9-1,4.4-1c1.9,0,3.5,0.3,4.7,0.8
		c1.2,0.5,2.2,1.2,2.9,2.2c0.7,0.9,1.2,2,1.5,3.3c0.3,1.3,0.4,2.8,0.4,4.4v15.9h-7.1v-14.6c0-2.1-0.3-3.7-1-4.8s-1.8-1.6-3.5-1.6
		c-1.9,0-3.3,0.6-4.2,1.7c-0.9,1.1-1.3,3-1.3,5.7v13.5H305v-25.8H311.7z"/>
	<path class="st2" d="M356.7,127.1v7.7h-7.9v-7.7H356.7z M354.5,124.1H351l-1.9-15.4v-9.6h7.4v9.6L354.5,124.1z"/>
</g>
<path class="st3" d="M331.6,363.1c0-4-1.9-7.8-5.2-10.1c0-0.9,0.1-1.8,0.1-2.7c0-11.1-2-22.2-6-32.6c2.5-6.4-0.6-13.7-7-16.2
	c-0.5-0.2-1.1-0.4-1.6-0.5c-4.3-6.6-9.5-12.5-15.5-17.6c-0.1-6.8-5.6-12.4-12.5-12.4h-0.5c-1.9-6.6-8.8-10.5-15.4-8.6
	c-2.5,0.7-4.7,2.2-6.4,4.2c-10.8-2.1-22-1.6-32.7,1.4c-5.5-4.2-13.3-3.1-17.5,2.4c-1.4,1.9-2.3,4.1-2.5,6.4
	c-6.5,4.1-12.4,9.1-17.4,14.8c-0.3,0-0.5,0-0.8,0c-6.9,0-12.5,5.6-12.5,12.5c0,1.8,0.4,3.7,1.2,5.3c-6.8,1.2-11.3,7.7-10.1,14.5
	c0.4,2.1,1.3,4.1,2.7,5.8c-3,12.9-3.1,26.3-0.4,39.3c-5,4.8-5.1,12.7-0.3,17.7c2,2.1,4.7,3.4,7.6,3.7c13.2,26.8,39.2,45,69.2,45
	c35.4,0,65.3-25.4,75.1-60.3C328.3,373.3,331.7,368.5,331.6,363.1z"/>
<path class="st4" d="M223.6,415.1h2.4c5,0,9,4,9,9V445c0,5-4,9-9,9h-2.4c-5,0-9-4-9-9v-20.9C214.6,419.2,218.6,415.1,223.6,415.1z"
	/>
<radialGradient id="SVGID_1_" cx="224.825" cy="65.425" r="15.5348" gradientTransform="matrix(1 0 0 -1 0 500)" gradientUnits="userSpaceOnUse">
	<stop  offset="0" style="stop-color:#FFFFFF;stop-opacity:0"/>
	<stop  offset="0.1" style="stop-color:#FEFBF9;stop-opacity:3.000000e-02"/>
	<stop  offset="0.24" style="stop-color:#FBEEE8;stop-opacity:0.12"/>
	<stop  offset="0.41" style="stop-color:#F6DACB;stop-opacity:0.27"/>
	<stop  offset="0.6" style="stop-color:#F0BDA4;stop-opacity:0.47"/>
	<stop  offset="0.8" style="stop-color:#E79972;stop-opacity:0.73"/>
	<stop  offset="1" style="stop-color:#DE733D"/>
</radialGradient>
<path class="st5" d="M223.6,415.1h2.4c5,0,9,4,9,9V445c0,5-4,9-9,9h-2.4c-5,0-9-4-9-9v-20.9C214.6,419.2,218.6,415.1,223.6,415.1z"
	/>
<path class="st3" d="M204.4,412.6c0,13.5,9.2,24.4,20.4,24.4s18.4-6.8,18.4-20.3"/>
<path class="st4" d="M268.2,415.1h2.5c5,0,9,4,9,9V445c0,5-4,9-9,9h-2.5c-5,0-9-4-9-9v-20.9C259.2,419.2,263.3,415.1,268.2,415.1z"
	/>
<radialGradient id="SVGID_2_" cx="269.475" cy="65.425" r="15.5348" gradientTransform="matrix(1 0 0 -1 0 500)" gradientUnits="userSpaceOnUse">
	<stop  offset="0" style="stop-color:#FFFFFF;stop-opacity:0"/>
	<stop  offset="0.1" style="stop-color:#FEFBF9;stop-opacity:3.000000e-02"/>
	<stop  offset="0.24" style="stop-color:#FBEEE8;stop-opacity:0.12"/>
	<stop  offset="0.41" style="stop-color:#F6DACB;stop-opacity:0.27"/>
	<stop  offset="0.6" style="stop-color:#F0BDA4;stop-opacity:0.47"/>
	<stop  offset="0.8" style="stop-color:#E79972;stop-opacity:0.73"/>
	<stop  offset="1" style="stop-color:#DE733D"/>
</radialGradient>
<path class="st6" d="M268.2,415.1h2.5c5,0,9,4,9,9V445c0,5-4,9-9,9h-2.5c-5,0-9-4-9-9v-20.9C259.2,419.2,263.3,415.1,268.2,415.1z"
	/>
<path class="st3" d="M250.8,416.7c0,13.5,7.4,20.3,18.7,20.3s20.5-10.9,20.5-24.4"/>
<image style="overflow:visible;opacity:0.1;enable-background:new    ;" width="72" height="36" xlink:href="B0FEF6E9726A9072.png"  transform="matrix(0.9861 0 0 0.9722 213.57 393.5)">
</image>
<path class="st2" d="M221.2,395h53c3.6,0,6.5,2.9,6.5,6.5v17c0,3.6-2.9,6.5-6.5,6.5h-53c-3.6,0-6.5-2.9-6.5-6.5v-17
	C214.7,397.9,217.6,395,221.2,395z"/>
<path class="st7" d="M221.2,395h53c3.6,0,6.5,2.9,6.5,6.5v17c0,3.6-2.9,6.5-6.5,6.5h-53c-3.6,0-6.5-2.9-6.5-6.5v-17
	C214.7,397.9,217.6,395,221.2,395z"/>
<g class="st1">
	<path class="st8" d="M235.2,419l-10.8,0l-0.3-3.2c0.8-0.5,1.8-1.1,2.8-1.8c1-0.8,1.8-1.5,2.5-2.4c0.7-0.8,1-1.5,1-2.1
		c0-0.3-0.1-0.6-0.3-0.8c-0.2-0.2-0.5-0.3-0.9-0.3c-0.4,0-0.8,0.2-1.1,0.5c-0.3,0.3-0.5,0.7-0.5,1.2l-3.5-0.6c0.1-1,0.3-1.8,0.8-2.6
		c0.5-0.8,1.1-1.4,1.9-1.8c0.8-0.4,1.7-0.7,2.7-0.7c1,0,1.8,0.2,2.6,0.7c0.7,0.4,1.3,1,1.7,1.8s0.6,1.7,0.6,2.6
		c0,1.1-0.4,2.1-1.1,3.2c-0.7,1-1.7,2-2.9,3l4.4-0.2L235.2,419z"/>
</g>
<g class="st1">
	<path class="st8" d="M238.1,418.3c-1-0.7-1.7-1.6-2.3-2.7c-0.6-1.2-0.8-2.5-0.8-3.9c0-1.4,0.3-2.7,0.8-3.8c0.6-1.1,1.3-2,2.3-2.7
		c1-0.6,2.1-1,3.3-1c1.2,0,2.3,0.3,3.2,0.9s1.6,1.5,2.1,2.6c0.5,1.1,0.8,2.4,0.8,3.9c0,1.5-0.3,2.8-0.8,4s-1.2,2.1-2.2,2.7
		c-0.9,0.6-2,1-3.2,1C240.2,419.3,239.1,419,238.1,418.3z M242.3,414.6c0.3-0.3,0.5-0.7,0.7-1.2c0.2-0.5,0.3-1,0.3-1.6
		c0-1-0.2-1.7-0.5-2.3c-0.4-0.6-0.8-0.9-1.4-0.9c-0.4,0-0.8,0.1-1.1,0.4c-0.3,0.3-0.6,0.6-0.8,1.1c-0.2,0.5-0.3,1-0.3,1.6
		c0,0.6,0.1,1.2,0.3,1.7s0.4,0.9,0.8,1.2c0.3,0.3,0.7,0.4,1.1,0.4C241.7,415.1,242,414.9,242.3,414.6z"/>
</g>
<g class="st1">
	<path class="st8" d="M259.2,411.9v4l-1.9-0.1l-0.1,3.1l-4,0.1l0.1-3.5l-5-0.3l-0.1-10.6l4-0.2l0.1,7.2l1.1,0l0.1-3.2l4-1l-0.1,4.4
		L259.2,411.9z"/>
	<path class="st8" d="M270.4,412.7c0.4,0.6,0.7,1.4,0.7,2.2c0,0.8-0.2,1.5-0.6,2.2s-1,1.1-1.8,1.5s-1.7,0.6-2.7,0.6
		c-1,0-2-0.2-2.8-0.6c-0.8-0.4-1.5-0.9-2-1.5s-0.7-1.3-0.7-2.1c0-0.7,0.2-1.5,0.7-2.1c0.5-0.7,1.1-1.2,1.8-1.4
		c-0.7-0.4-1.3-0.8-1.7-1.4c-0.4-0.5-0.6-1.1-0.6-1.8c0-0.7,0.2-1.3,0.7-1.9c0.5-0.6,1.1-1.1,1.9-1.5c0.8-0.4,1.6-0.6,2.5-0.6
		c0.9,0,1.8,0.2,2.5,0.6c0.8,0.4,1.4,0.9,1.8,1.5c0.4,0.6,0.7,1.3,0.7,2c0,0.6-0.2,1.1-0.5,1.7c-0.3,0.5-0.8,1-1.4,1.3
		C269.4,411.6,269.9,412.1,270.4,412.7z M267,415.7c0.3-0.2,0.5-0.5,0.5-0.9c0-0.3-0.1-0.6-0.4-0.8s-0.7-0.5-1.4-0.7
		c-0.6,0.1-1,0.3-1.3,0.6s-0.4,0.6-0.4,0.9c0,0.4,0.2,0.7,0.5,0.9c0.3,0.2,0.8,0.3,1.3,0.3C266.3,416,266.6,415.9,267,415.7z
		 M264.5,407.8c-0.3,0.2-0.4,0.5-0.4,0.8c0,0.3,0.2,0.6,0.5,0.8c0.3,0.2,0.8,0.4,1.3,0.5c0.8-0.3,1.3-0.8,1.3-1.3
		c0-0.4-0.2-0.6-0.5-0.8c-0.3-0.2-0.7-0.3-1.1-0.3C265.2,407.5,264.8,407.6,264.5,407.8z"/>
</g>
<ellipse class="st3" cx="248.1" cy="344.4" rx="43.8" ry="48.3"/>
<ellipse class="st4" cx="248.1" cy="356.9" rx="36.4" ry="43.8"/>
<ellipse transform="matrix(0.6257 -0.7801 0.7801 0.6257 -184.4321 282.7501)" class="st4" cx="202.4" cy="333.5" rx="20" ry="9.1"/>
<radialGradient id="SVGID_3_" cx="248.13" cy="143.14" r="44.36" gradientTransform="matrix(1 0 0 -1 0 500)" gradientUnits="userSpaceOnUse">
	<stop  offset="0" style="stop-color:#FFFFFF;stop-opacity:0"/>
	<stop  offset="0.1" style="stop-color:#FEFBF9;stop-opacity:3.000000e-02"/>
	<stop  offset="0.24" style="stop-color:#FBEEE8;stop-opacity:0.12"/>
	<stop  offset="0.41" style="stop-color:#F6DACB;stop-opacity:0.27"/>
	<stop  offset="0.6" style="stop-color:#F0BDA4;stop-opacity:0.47"/>
	<stop  offset="0.8" style="stop-color:#E79972;stop-opacity:0.73"/>
	<stop  offset="1" style="stop-color:#DE733D"/>
</radialGradient>
<ellipse class="st9" cx="248.1" cy="356.9" rx="36.4" ry="43.8"/>
<ellipse cx="224.8" cy="347.2" rx="7.4" ry="10.8"/>
<ellipse cx="271.4" cy="347.2" rx="7.4" ry="10.8"/>
<ellipse class="st2" cx="222.6" cy="342.7" rx="1.7" ry="2.8"/>
<ellipse class="st2" cx="269.1" cy="342.7" rx="1.7" ry="2.8"/>
<radialGradient id="SVGID_4_" cx="375.5578" cy="393.385" r="19.07" gradientTransform="matrix(0.6335 -0.7738 -0.4369 -0.3504 136.5036 760.7859)" gradientUnits="userSpaceOnUse">
	<stop  offset="0" style="stop-color:#FFFFFF;stop-opacity:0"/>
	<stop  offset="0.1" style="stop-color:#FEFBF9;stop-opacity:3.000000e-02"/>
	<stop  offset="0.24" style="stop-color:#FBEEE8;stop-opacity:0.12"/>
	<stop  offset="0.41" style="stop-color:#F6DACB;stop-opacity:0.27"/>
	<stop  offset="0.6" style="stop-color:#F0BDA4;stop-opacity:0.47"/>
	<stop  offset="0.8" style="stop-color:#E79972;stop-opacity:0.73"/>
	<stop  offset="1" style="stop-color:#DE733D"/>
</radialGradient>
<path class="st10" d="M195.3,327.9c6.9-8.6,15.7-13.1,19.6-9.9s1.5,12.7-5.4,21.3s-15.7,13.1-19.6,9.9
	C186,346,188.4,336.5,195.3,327.9z"/>
<ellipse transform="matrix(0.6257 -0.7801 0.7801 0.6257 -183.4601 282.5712)" class="st11" cx="202.7" cy="332.4" rx="13.4" ry="4.6"/>
<ellipse transform="matrix(0.7081 -0.7061 0.7061 0.7081 -150.2 305.8305)" class="st4" cx="294.8" cy="334.6" rx="9.1" ry="20"/>
<radialGradient id="SVGID_5_" cx="-5010.6582" cy="-5877.9131" r="19.07" gradientTransform="matrix(-0.699 -0.7152 -0.3965 0.3954 -5589.7778 -900.8587)" gradientUnits="userSpaceOnUse">
	<stop  offset="0" style="stop-color:#FFFFFF;stop-opacity:0"/>
	<stop  offset="0.1" style="stop-color:#FEFBF9;stop-opacity:3.000000e-02"/>
	<stop  offset="0.24" style="stop-color:#FBEEE8;stop-opacity:0.12"/>
	<stop  offset="0.41" style="stop-color:#F6DACB;stop-opacity:0.27"/>
	<stop  offset="0.6" style="stop-color:#F0BDA4;stop-opacity:0.47"/>
	<stop  offset="0.8" style="stop-color:#E79972;stop-opacity:0.73"/>
	<stop  offset="1" style="stop-color:#DE733D"/>
</radialGradient>
<path class="st12" d="M280.7,320.4c3.6-3.5,12.8-0.1,20.6,7.8s11.2,17,7.7,20.6c-3.6,3.5-12.8,0.1-20.6-7.8S277.1,324,280.7,320.4z"
	/>
<ellipse transform="matrix(0.7081 -0.7061 0.7061 0.7081 -150.2128 304.9618)" class="st11" cx="293.7" cy="334.2" rx="4.6" ry="13.4"/>
<path class="st3" d="M258,291.2c-4.5-5.1-12.4-5.6-17.5-1.1c-0.2,0.1-0.3,0.3-0.5,0.4c-3.7-2.7-8.9-1.8-11.6,1.9
	c-0.4,0.5-0.7,1.1-0.9,1.7c-10.5,4.1-17.5,11.4-17.5,19.6c0,12.9,17,23.3,38.1,23.3s38.1-10.4,38.1-23.3
	C286.2,302.9,274.2,293.9,258,291.2z"/>
<path class="st13" d="M170,166.6h160c4.1,0,7.5,3.4,7.5,7.5v42.8c0,4.1-3.4,7.5-7.5,7.5H170c-4.1,0-7.5-3.4-7.5-7.5v-42.8
	C162.5,170,165.9,166.6,170,166.6z"/>
<g class="st1">
	<path class="st2" d="M184,187v-4h17.5v4h-6.4v17.5h-4.7V187H184z"/>
</g>
<g class="st1">
	<path class="st2" d="M204.9,189v2.9h0.1c0.2-0.5,0.5-0.9,0.8-1.3c0.3-0.4,0.7-0.8,1.2-1s0.9-0.5,1.4-0.7c0.5-0.2,1-0.2,1.6-0.2
		c0.3,0,0.6,0,0.9,0.1v4c-0.2,0-0.4-0.1-0.7-0.1c-0.3,0-0.6,0-0.8,0c-0.8,0-1.4,0.1-2,0.4s-1,0.6-1.3,1.1c-0.3,0.4-0.6,1-0.7,1.6
		c-0.1,0.6-0.2,1.3-0.2,2v7h-4.3V189H204.9z"/>
	<path class="st2" d="M218.2,209.1c-0.8,0.5-2,0.8-3.4,0.8c-0.4,0-0.9,0-1.3,0c-0.4,0-0.9-0.1-1.3-0.1v-3.5c0.4,0,0.8,0.1,1.2,0.1
		c0.4,0,0.8,0,1.3,0c0.6-0.1,1-0.3,1.2-0.7s0.4-0.8,0.4-1.3c0-0.3-0.1-0.7-0.2-1l-5.4-14.5h4.5l3.5,10.6h0.1l3.4-10.6h4.4l-6.5,17.4
		C219.7,207.7,219,208.6,218.2,209.1z"/>
	<path class="st2" d="M247.5,183.1l8,21.4h-4.9l-1.6-4.8h-8l-1.7,4.8h-4.7l8.1-21.4H247.5z M247.8,196.2l-2.7-7.9H245l-2.8,7.9
		H247.8z"/>
	<path class="st2" d="M271.6,205.6c-0.2,0.8-0.5,1.5-1.1,2.2c-0.6,0.7-1.4,1.3-2.4,1.8c-1.1,0.5-2.5,0.7-4.3,0.7
		c-0.8,0-1.5-0.1-2.3-0.3c-0.8-0.2-1.5-0.5-2.2-0.9c-0.7-0.4-1.2-0.9-1.6-1.5c-0.4-0.6-0.7-1.4-0.7-2.3h4.2c0.2,0.8,0.6,1.4,1.2,1.7
		c0.6,0.3,1.2,0.5,2,0.5c1.2,0,2.1-0.4,2.6-1.1s0.8-1.6,0.8-2.7v-2h-0.1c-0.5,0.8-1.1,1.4-2,1.8c-0.9,0.4-1.7,0.6-2.7,0.6
		c-1.2,0-2.2-0.2-3-0.6c-0.8-0.4-1.5-1-2.1-1.7s-0.9-1.5-1.2-2.5c-0.2-0.9-0.4-2-0.4-3c0-1,0.1-2,0.4-2.9c0.3-0.9,0.7-1.8,1.3-2.5
		c0.6-0.7,1.3-1.3,2.1-1.7s1.8-0.6,2.9-0.6c1,0,1.9,0.2,2.7,0.6c0.8,0.4,1.4,1,1.9,1.9h0.1V189h4v14.5
		C271.8,204.1,271.8,204.8,271.6,205.6z M265.7,200.5c0.5-0.2,0.8-0.6,1.1-1c0.3-0.4,0.5-0.9,0.7-1.4c0.1-0.5,0.2-1,0.2-1.6
		c0-0.6-0.1-1.2-0.2-1.8c-0.1-0.6-0.3-1.1-0.6-1.5c-0.3-0.4-0.7-0.8-1.1-1s-1-0.4-1.7-0.4c-0.6,0-1.1,0.1-1.5,0.4
		c-0.4,0.2-0.8,0.6-1.1,1s-0.5,0.9-0.6,1.4c-0.1,0.5-0.2,1.1-0.2,1.7c0,0.6,0.1,1.1,0.2,1.7c0.1,0.5,0.3,1,0.6,1.5
		c0.3,0.4,0.6,0.8,1.1,1.1c0.4,0.3,1,0.4,1.6,0.4C264.8,200.8,265.3,200.7,265.7,200.5z"/>
	<path class="st2" d="M275.1,193.8c0.1-1,0.3-1.8,0.8-2.5c0.4-0.7,1-1.2,1.7-1.6c0.7-0.4,1.4-0.7,2.3-0.9c0.8-0.2,1.7-0.3,2.6-0.3
		c0.8,0,1.6,0.1,2.4,0.2c0.8,0.1,1.5,0.3,2.2,0.6c0.7,0.3,1.2,0.8,1.6,1.3s0.6,1.3,0.6,2.3v8.1c0,0.7,0,1.4,0.1,2
		c0.1,0.6,0.2,1.1,0.4,1.4h-4.3c-0.1-0.2-0.1-0.5-0.2-0.7c0-0.2-0.1-0.5-0.1-0.8c-0.7,0.7-1.5,1.2-2.4,1.5c-0.9,0.3-1.9,0.4-2.8,0.4
		c-0.7,0-1.4-0.1-2.1-0.3c-0.6-0.2-1.2-0.5-1.7-0.8c-0.5-0.4-0.9-0.9-1.1-1.4c-0.3-0.6-0.4-1.3-0.4-2.1c0-0.9,0.2-1.6,0.5-2.2
		c0.3-0.6,0.7-1,1.2-1.4c0.5-0.3,1-0.6,1.7-0.8s1.3-0.3,1.9-0.4c0.6-0.1,1.3-0.2,1.9-0.2c0.6-0.1,1.2-0.2,1.7-0.3
		c0.5-0.1,0.9-0.3,1.1-0.5c0.3-0.2,0.4-0.6,0.4-1c0-0.5-0.1-0.8-0.2-1.1c-0.2-0.3-0.3-0.5-0.6-0.6c-0.3-0.2-0.5-0.2-0.9-0.3
		s-0.7-0.1-1.1-0.1c-0.8,0-1.5,0.2-2,0.5c-0.5,0.4-0.8,1-0.8,1.8H275.1z M284.9,196.9c-0.2,0.2-0.4,0.3-0.7,0.4
		c-0.3,0.1-0.6,0.2-0.9,0.2c-0.3,0.1-0.6,0.1-1,0.2s-0.7,0.1-1,0.1c-0.3,0.1-0.6,0.1-0.9,0.2c-0.3,0.1-0.6,0.2-0.8,0.4
		c-0.2,0.2-0.4,0.4-0.6,0.6c-0.1,0.3-0.2,0.6-0.2,1c0,0.4,0.1,0.7,0.2,1c0.1,0.3,0.3,0.5,0.6,0.6s0.5,0.3,0.8,0.3
		c0.3,0.1,0.6,0.1,1,0.1c0.8,0,1.5-0.1,1.9-0.4s0.8-0.6,1-1c0.2-0.4,0.4-0.8,0.4-1.2c0-0.4,0.1-0.7,0.1-1V196.9z"/>
	<path class="st2" d="M292.6,186.6v-3.5h4.3v3.5H292.6z M296.9,189v15.5h-4.3V189H296.9z"/>
	<path class="st2" d="M304.3,189v2.2h0.1c0.5-0.9,1.2-1.6,2.1-2c0.9-0.4,1.7-0.6,2.6-0.6c1.1,0,2.1,0.2,2.8,0.5
		c0.7,0.3,1.3,0.7,1.7,1.3s0.7,1.2,0.9,2s0.3,1.7,0.3,2.6v9.5h-4.3v-8.8c0-1.3-0.2-2.2-0.6-2.9c-0.4-0.6-1.1-0.9-2.1-0.9
		c-1.2,0-2,0.3-2.5,1c-0.5,0.7-0.8,1.8-0.8,3.4v8.1h-4.3V189H304.3z"/>
</g>
</svg>
